<?xml version="1.0" encoding="utf-8"?>
<svg xmlns="http://www.w3.org/2000/svg" style="margin: auto; background: none; display: block; shape-rendering: auto; animation-play-state: running; animation-delay: 0s;" width="280" height="220" preserveAspectRatio="xMidYMid">
<style type="text/css" style="animation-play-state: running; animation-delay: 0s;">
  text {
    text-anchor: middle; font-size: 69px; opacity: 0;
  }
</style>
<g style="transform-origin: 140px 110px; transform: scale(1); animation-play-state: running; animation-delay: 0s;">
<g transform="translate(140,110)" style="animation-play-state: running; animation-delay: 0s;">
  <g transform="translate(0,0)" style="animation-play-state: running; animation-delay: 0s;"><g class="path" style="transform: scale(0.91); transform-origin: -95.205px -3.46189px; animation: 1s linear -0.565714s infinite normal forwards running breath-7a559ba2-6634-437e-8bce-da076673ae6f;"><path d="M2.70 0L19.20 0L19.20 0Q19.20-1.48 18.13-1.68L18.13-1.68L18.13-1.68Q17.79-1.75 17.45-1.75L17.45-1.75L13.88-1.75L13.88-19.88L34.57-19.88L34.57-1.75L29.18-1.75L29.18 0L45.69 0L45.69 0Q45.69-1.48 44.61-1.68L44.61-1.68L44.61-1.68Q44.27-1.75 43.93-1.75L43.93-1.75L40.36-1.75L40.36-38.68L45.69-38.68L45.69-40.43L29.18-40.43L29.18-38.68L34.57-38.68L34.57-21.83L13.88-21.83L13.88-38.68L19.20-38.68L19.20-40.43L2.70-40.43L2.70-38.68L8.09-38.68L8.09-1.75L2.70-1.75L2.70 0" fill="#002663" stroke="none" stroke-width="none" transform="translate(-119.39999389648438,16.753115147181923)" style="fill: rgb(0, 38, 99); animation-play-state: running; animation-delay: 0s;"></path></g><g class="path" style="transform: scale(0.91); transform-origin: -53.77px 2.43312px; animation: 1s linear -0.471429s infinite normal forwards running breath-7a559ba2-6634-437e-8bce-da076673ae6f;"><path d="M74.73 0.67L74.73 0.67L74.73 0.67Q79.92 0.67 80.46-5.59L80.46-5.59L80.46-5.59Q80.52-6.00 80.52-6.33L80.52-6.33L78.77-6.40L78.77-6.40Q78.30-1.48 76.14-1.42L76.14-1.42L76.14-1.42Q74.39-1.55 74.32-4.92L74.32-4.92L74.32-19.14L74.32-19.14Q74.32-28.77 64.69-29.31L64.69-29.31L64.69-29.31Q64.08-29.31 63.47-29.31L63.47-29.31L63.47-29.31Q55.93-29.31 53.37-25.81L53.37-25.81L53.37-25.81Q52.56-24.66 52.56-23.52L52.56-23.52L52.56-23.52Q52.56-21.43 54.51-21.09L54.51-21.09L54.51-21.09Q54.85-21.02 55.19-21.02L55.19-21.02L55.19-21.02Q56.74-21.02 57.48-22.98L57.48-22.98L57.48-22.98Q58.42-25.47 58.76-25.94L58.76-25.94L58.76-25.94Q60.04-27.63 62.73-27.63L62.73-27.63L62.73-27.63Q69.07-27.22 69.27-20.69L69.27-20.69L69.27-16.44L69.27-16.44Q53.43-16.44 51.14-9.84L51.14-9.84L51.14-9.84Q50.74-8.56 50.74-7.08L50.74-7.08L50.74-7.08Q50.74-1.95 55.25-0.07L55.25-0.07L55.25-0.07Q57.07 0.67 59.09 0.67L59.09 0.67L59.09 0.67Q64.01 0.67 67.38-2.70L67.38-2.70L67.38-2.70Q68.60-3.98 69.20-5.39L69.20-5.39L69.20-5.39Q70.01 0.61 74.73 0.67zM61.32-2.02L61.32-2.02L61.32-2.02Q57.21-2.02 56.26-6.13L56.26-6.13L56.26-6.13Q56.06-7.08 56.06-8.22L56.06-8.22L56.06-8.22Q56.06-12.74 61.25-13.95L61.25-13.95L61.25-13.95Q64.01-14.55 69.27-14.62L69.27-14.62L69.27-9.23L69.27-9.23Q68.26-4.58 64.35-2.70L64.35-2.70L64.35-2.70Q62.80-2.02 61.32-2.02" fill="#002663" stroke="none" stroke-width="none" transform="translate(-119.39999389648438,16.753115147181923)" style="fill: rgb(77, 79, 83); animation-play-state: running; animation-delay: 0s;"></path></g><g class="path" style="transform: scale(0.91); transform-origin: -19.235px 2.09811px; animation: 1s linear -0.377143s infinite normal forwards running breath-7a559ba2-6634-437e-8bce-da076673ae6f;"><path d="M96.02-1.68L96.02-1.68L92.99-1.68L92.99-16.24L92.99-16.24Q93.19-22.51 97.44-25.27L97.44-25.27L97.44-25.27Q99.25-26.41 101.14-26.41L101.14-26.41L101.14-26.41Q105.25-26.41 106.73-22.57L106.73-22.57L106.73-22.57Q107.34-21.02 107.34-19.07L107.34-19.07L107.34-5.73L107.34-5.73Q107.34-2.63 105.59-2.02L105.59-2.02L105.59-2.02Q104.58-1.68 102.29-1.68L102.29-1.68L102.29 0L117.45 0L117.45 0Q117.45-1.48 116.44-1.62L116.44-1.62L116.44-1.62Q116.17-1.68 115.76-1.68L115.76-1.68L112.39-1.68L112.39-18.40L112.39-18.40Q112.39-25.13 107.75-28.03L107.75-28.03L107.75-28.03Q105.59-29.31 103.10-29.31L103.10-29.31L103.10-29.31Q98.11-29.31 94.88-25.34L94.88-25.34L94.88-25.34Q93.66-23.79 92.92-21.90L92.92-21.90L92.65-28.64L82.88-28.64L82.88-26.95L87.93-26.95L87.93-5.73L87.93-5.73Q87.93-2.63 86.18-2.02L86.18-2.02L86.18-2.02Q85.17-1.68 82.88-1.68L82.88-1.68L82.88 0L97.71 0L97.71 0Q97.71-1.48 96.69-1.62L96.69-1.62L96.69-1.62Q96.42-1.68 96.02-1.68" fill="#002663" stroke="none" stroke-width="none" transform="translate(-119.39999389648438,16.753115147181923)" style="fill: rgb(0, 38, 99); animation-play-state: running; animation-delay: 0s;"></path></g><g class="path" style="transform: scale(0.91); transform-origin: 18.735px -4.81189px; animation: 1s linear -0.282857s infinite normal forwards running breath-7a559ba2-6634-437e-8bce-da076673ae6f;"><path d="M144.27-7.14L144.81 0L154.44 0L154.44 0Q154.44-1.48 153.43-1.62L153.43-1.62L153.43-1.62Q153.16-1.68 152.76-1.68L152.76-1.68L149.39-1.68L149.25-43.80L137.80-43.80L137.80-42.11L144.20-42.11L144.20-25.67L144.20-25.67Q140.90-29.31 135.30-29.31L135.30-29.31L135.30-29.31Q127.89-29.31 124.12-22.71L124.12-22.71L124.12-22.71Q121.83-18.67 121.83-13.61L121.83-13.61L121.83-13.61Q121.83-5.26 127.08-1.42L127.08-1.42L127.08-1.42Q130.05 0.67 133.62 0.67L133.62 0.67L133.62 0.67Q140.96 0.54 144.27-7.14L144.27-7.14zM127.56-14.42L127.56-14.42L127.56-14.42Q127.56-23.92 132.68-26.75L132.68-26.75L132.68-26.75Q134.29-27.63 136.25-27.63L136.25-27.63L136.25-27.63Q141.17-27.63 143.26-22.37L143.26-22.37L143.26-22.37Q144.40-19.54 144.40-15.70L144.40-15.70L144.40-15.70Q144.40-7.61 140.36-3.98L140.36-3.98L140.36-3.98Q138.20-2.02 135.44-2.02L135.44-2.02L135.44-2.02Q129.91-2.02 128.23-8.76L128.23-8.76L128.23-8.76Q127.56-11.25 127.56-14.42" fill="#002663" stroke="none" stroke-width="none" transform="translate(-119.39999389648438,16.753115147181923)" style="fill: rgb(77, 79, 83); animation-play-state: running; animation-delay: 0s;"></path></g><g class="path" style="transform: scale(0.91); transform-origin: 50.475px 2.22812px; animation: 1s linear -0.188571s infinite normal forwards running breath-7a559ba2-6634-437e-8bce-da076673ae6f;"><path d="M168.86-1.15L168.86-1.15L168.86-1.15Q173.51-1.15 175.13-3.98L175.13-3.98L175.13-3.98Q175.73-4.99 175.73-6.20L175.73-6.20L175.73-6.20Q175.73-9.03 171.62-11.05L171.62-11.05L171.62-11.05Q170.75-11.52 168.73-12.40L168.73-12.40L168.73-12.40Q163.20-14.69 161.38-16.71L161.38-16.71L161.38-16.71Q159.43-18.93 159.43-21.90L159.43-21.90L159.43-21.90Q159.43-26.55 164.55-28.44L164.55-28.44L164.55-28.44Q166.91-29.31 169.67-29.31L169.67-29.31L169.67-29.31Q174.12-29.31 177.35-27.42L177.35-27.42L177.35-27.42Q177.35-29.38 178.29-29.65L178.29-29.65L178.29-29.65Q178.70-29.72 179.17-29.72L179.17-29.72L179.17-21.29L177.42-21.29L177.42-21.29Q177.28-27.49 170.55-27.56L170.55-27.56L170.55-27.56Q165.49-27.56 164.28-24.59L164.28-24.59L164.28-24.59Q163.94-23.79 163.94-22.91L163.94-22.91L163.94-22.91Q163.94-20.01 168.12-17.99L168.12-17.99L168.12-17.99Q169.06-17.52 171.08-16.71L171.08-16.71L171.08-16.71Q176.54-14.49 178.36-12.47L178.36-12.47L178.36-12.47Q180.32-10.31 180.32-7.34L180.32-7.34L180.32-7.34Q180.32-1.89 174.52-0.07L174.52-0.07L174.52-0.07Q172.30 0.67 169.67 0.67L169.67 0.67L169.67 0.67Q164.82 0.61 161.25-1.75L161.25-1.75L161.25-1.75Q161.25 0 160.37 0.27L160.37 0.27L160.37 0.27Q159.97 0.34 159.43 0.34L159.43 0.34L159.43-9.91L161.31-9.91L161.31-9.91Q161.45-1.21 168.86-1.15" fill="#002663" stroke="none" stroke-width="none" transform="translate(-119.39999389648438,16.753115147181923)" style="fill: rgb(0, 38, 99); animation-play-state: running; animation-delay: 0s;"></path></g><g class="path" style="transform: scale(0.91); transform-origin: 74.565px -3.46189px; animation: 1s linear -0.0942857s infinite normal forwards running breath-7a559ba2-6634-437e-8bce-da076673ae6f;"><path d="M185.71 0L202.22 0L202.22 0Q202.22-1.48 201.14-1.68L201.14-1.68L201.14-1.68Q200.80-1.75 200.46-1.75L200.46-1.75L196.89-1.75L196.89-38.68L202.22-38.68L202.22-40.43L185.71-40.43L185.71-38.68L191.10-38.68L191.10-1.75L185.71-1.75L185.71 0" fill="#002663" stroke="none" stroke-width="none" transform="translate(-119.39999389648438,16.753115147181923)" style="fill: rgb(77, 79, 83); animation-play-state: running; animation-delay: 0s;"></path></g><g class="path" style="transform: scale(0.91); transform-origin: 104.815px 2.09811px; animation: 1s linear 0s infinite normal forwards running breath-7a559ba2-6634-437e-8bce-da076673ae6f;"><path d="M220.07-1.68L220.07-1.68L217.04-1.68L217.04-16.24L217.04-16.24Q217.24-22.51 221.49-25.27L221.49-25.27L221.49-25.27Q223.31-26.41 225.19-26.41L225.19-26.41L225.19-26.41Q229.30-26.41 230.79-22.57L230.79-22.57L230.79-22.57Q231.39-21.02 231.39-19.07L231.39-19.07L231.39-5.73L231.39-5.73Q231.39-2.63 229.64-2.02L229.64-2.02L229.64-2.02Q228.63-1.68 226.34-1.68L226.34-1.68L226.34 0L241.50 0L241.50 0Q241.50-1.48 240.49-1.62L240.49-1.62L240.49-1.62Q240.22-1.68 239.82-1.68L239.82-1.68L236.45-1.68L236.45-18.40L236.45-18.40Q236.45-25.13 231.80-28.03L231.80-28.03L231.80-28.03Q229.64-29.31 227.15-29.31L227.15-29.31L227.15-29.31Q222.16-29.31 218.93-25.34L218.93-25.34L218.93-25.34Q217.71-23.79 216.97-21.90L216.97-21.90L216.70-28.64L206.93-28.64L206.93-26.95L211.99-26.95L211.99-5.73L211.99-5.73Q211.99-2.63 210.23-2.02L210.23-2.02L210.23-2.02Q209.22-1.68 206.93-1.68L206.93-1.68L206.93 0L221.76 0L221.76 0Q221.76-1.48 220.75-1.62L220.75-1.62L220.75-1.62Q220.48-1.68 220.07-1.68" fill="#002663" stroke="none" stroke-width="none" transform="translate(-119.39999389648438,16.753115147181923)" style="fill: rgb(0, 38, 99); animation-play-state: running; animation-delay: 0s;"></path></g></g>
</g>
</g>
<style id="breath-7a559ba2-6634-437e-8bce-da076673ae6f" data-anikit="">@keyframes breath-7a559ba2-6634-437e-8bce-da076673ae6f
{
  0% {
    animation-timing-function: cubic-bezier(0.9647,0.2413,-0.0705,0.7911);
    transform: scale(0.9099999999999999);
  }
  51% {
    animation-timing-function: cubic-bezier(0.9226,0.2631,-0.0308,0.7628);
    transform: scale(1.02994);
  }
  100% {
    transform: scale(0.9099999999999999);
  }
}</style></svg>